HIERARCHY
ROOT hip
{
  OFFSET 0 0 0
  CHANNELS 6 Xposition Yposition Zposition Zrotation Yrotation Xrotation
  JOINT abdomen
  {
    OFFSET 0 20.6881 -0.73152
    CHANNELS 3 Zrotation Xrotation Yrotation
    JOINT chest
    {
      OFFSET 0 11.7043 -0.48768
      CHANNELS 3 Zrotation Xrotation Yrotation
      JOINT neck
      {
        OFFSET 0 22.1894 -2.19456
        CHANNELS 3 Zrotation Xrotation Yrotation
        JOINT head
        {
          OFFSET -0.24384 7.07133 1.2192
          CHANNELS 3 Zrotation Xrotation Yrotation
          JOINT leftEye
          {
            OFFSET 4.14528 8.04674 8.04672
            CHANNELS 3 Zrotation Xrotation Yrotation
            End Site
            {
              OFFSET 1 0 0
            }
          }
          JOINT rightEye
          {
            OFFSET -3.6576 8.04674 8.04672
            CHANNELS 3 Zrotation Xrotation Yrotation
            End Site
            {
              OFFSET 1 0 0
            }
          }
        }
      }
      JOINT rCollar
      {
        OFFSET -2.68224 19.2634 -4.8768
        CHANNELS 3 Zrotation Xrotation Yrotation
        JOINT rShldr
        {
          OFFSET -8.77824 -1.95073 1.46304
          CHANNELS 3 Zrotation Xrotation Yrotation
          JOINT rForeArm
          {
            OFFSET -28.1742 -1.7115 0.48768
            CHANNELS 3 Zrotation Xrotation Yrotation
            JOINT rHand
            {
              OFFSET -22.5879 0.773209 7.07136
              CHANNELS 3 Zrotation Xrotation Yrotation
              JOINT rThumb1
              {
                OFFSET -1.2192 -0.487915 3.41376
                CHANNELS 3 Zrotation Xrotation Yrotation
                JOINT rThumb2
                {
                  OFFSET -3.37035 -0.52449 3.41376
                  CHANNELS 3 Zrotation Xrotation Yrotation
                  End Site
                  {
                    OFFSET -1.78271 -1.18214 1.43049
                  }
                }
              }
              JOINT rIndex1
              {
                OFFSET -7.75947 0.938293 5.60832
                CHANNELS 3 Zrotation Xrotation Yrotation
                JOINT rIndex2
                {
                  OFFSET -2.54057 -0.884171 1.56538
                  CHANNELS 3 Zrotation Xrotation Yrotation
                  End Site
                  {
                    OFFSET -1.62519 -0.234802 1.16502
                  }
                }
              }
              JOINT rMid1
              {
                OFFSET -8.24714 1.18213 3.41376
                CHANNELS 3 Zrotation Xrotation Yrotation
                JOINT rMid2
                {
                  OFFSET -3.10165 -0.590103 1.0647
                  CHANNELS 3 Zrotation Xrotation Yrotation
                  End Site
                  {
                    OFFSET -2.48547 -0.328903 0.83742
                  }
                }
              }
              JOINT rRing1
              {
                OFFSET -8.82822 0.546677 1.51678
                CHANNELS 3 Zrotation Xrotation Yrotation
                JOINT rRing2
                {
                  OFFSET -2.60934 -0.819778 -0.0198488
                  CHANNELS 3 Zrotation Xrotation Yrotation
                  End Site
                  {
                    OFFSET -2.33842 -0.294052 0.168128
                  }
                }
              }
              JOINT rPinky1
              {
                OFFSET -8.27202 -0.0477905 -0.4584
                CHANNELS 3 Zrotation Xrotation Yrotation
                JOINT rPinky2
                {
                  OFFSET -1.82734 -0.647385 -0.700984
                  CHANNELS 3 Zrotation Xrotation Yrotation
                  End Site
                  {
                    OFFSET -1.69225 -0.51767 -0.607171
                  }
                }
              }
            }
          }
        }
      }
      JOINT lCollar
      {
        OFFSET 2.68224 19.2634 -4.8768
        CHANNELS 3 Zrotation Xrotation Yrotation
        JOINT lShldr
        {
          OFFSET 8.77824 -1.95073 1.46304
          CHANNELS 3 Zrotation Xrotation Yrotation
          JOINT lForeArm
          {
            OFFSET 28.1742 -1.7115 0.48768
            CHANNELS 3 Zrotation Xrotation Yrotation
            JOINT lHand
            {
              OFFSET 22.5879 0.773209 7.07136
              CHANNELS 3 Zrotation Xrotation Yrotation
              JOINT lThumb1
              {
                OFFSET 1.2192 -0.487915 3.41376
                CHANNELS 3 Zrotation Xrotation Yrotation
                JOINT lThumb2
                {
                  OFFSET 3.37035 -0.52449 3.41376
                  CHANNELS 3 Zrotation Xrotation Yrotation
                  End Site
                  {
                    OFFSET 1.78271 -1.18214 1.43049
                  }
                }
              }
              JOINT lIndex1
              {
                OFFSET 7.75947 0.938293 5.60832
                CHANNELS 3 Zrotation Xrotation Yrotation
                JOINT lIndex2
                {
                  OFFSET 2.54057 -0.884171 1.56538
                  CHANNELS 3 Zrotation Xrotation Yrotation
                  End Site
                  {
                    OFFSET 1.62519 -0.234802 1.16502
                  }
                }
              }
              JOINT lMid1
              {
                OFFSET 8.24714 1.18213 3.41376
                CHANNELS 3 Zrotation Xrotation Yrotation
                JOINT lMid2
                {
                  OFFSET 3.10165 -0.590103 1.0647
                  CHANNELS 3 Zrotation Xrotation Yrotation
                  End Site
                  {
                    OFFSET 2.48547 -0.328903 0.83742
                  }
                }
              }
              JOINT lRing1
              {
                OFFSET 8.82822 0.546677 1.51678
                CHANNELS 3 Zrotation Xrotation Yrotation
                JOINT lRing2
                {
                  OFFSET 2.60934 -0.819778 -0.0198488
                  CHANNELS 3 Zrotation Xrotation Yrotation
                  End Site
                  {
                    OFFSET 2.33842 -0.294052 0.168128
                  }
                }
              }
              JOINT lPinky1
              {
                OFFSET 8.27202 -0.0477905 -0.4584
                CHANNELS 3 Zrotation Xrotation Yrotation
                JOINT lPinky2
                {
                  OFFSET 1.82734 -0.647385 -0.700984
                  CHANNELS 3 Zrotation Xrotation Yrotation
                  End Site
                  {
                    OFFSET 1.69225 -0.51767 -0.607171
                  }
                }
              }
            }
          }
        }
      }
    }
  }
  JOINT rButtock
  {
    OFFSET -8.77824 4.35084 1.2192
    CHANNELS 3 Zrotation Xrotation Yrotation
    JOINT rThigh
    {
      OFFSET 0 -1.70687 -2.19456
      CHANNELS 3 Zrotation Xrotation Yrotation
      JOINT rShin
      {
        OFFSET 0 -36.8199 0.73152
        CHANNELS 3 Zrotation Xrotation Yrotation
        JOINT rFoot
        {
          OFFSET 0.73152 -45.1104 -5.12064
          CHANNELS 3 Zrotation Xrotation Yrotation
          End Site
          {
            OFFSET -1.1221 -3.69964 12.103
          }
        }
      }
    }
  }
  JOINT lButtock
  {
    OFFSET 8.77824 4.35084 1.2192
    CHANNELS 3 Zrotation Xrotation Yrotation
    JOINT lThigh
    {
      OFFSET 0 -1.70687 -2.19456
      CHANNELS 3 Zrotation Xrotation Yrotation
      JOINT lShin
      {
        OFFSET 0 -36.8199 0.73152
        CHANNELS 3 Zrotation Xrotation Yrotation
        JOINT lFoot
        {
          OFFSET -0.73152 -45.1104 -5.12064
          CHANNELS 3 Zrotation Xrotation Yrotation
          End Site
          {
            OFFSET 1.1221 -3.69964 12.103
          }
        }
      }
    }
  }
}
MOTION
Frames:	6
Frame Time:	0.00833333
1.39696 84.1002 -47.1779 0.0 0.0 0.0 -1.51926 -0.00282954 -0.0413934 -0.418698 0.00102591 -0.0725111 4.33276e-15 7.95139e-16 -2.48481e-17 1.25856e-14 3.18055e-15 -1.98785e-16 -0.0 0.0 0.0 -0.0 0.0 0.0 2.23542e-15 5.99848e-17 1.98785e-16 4.56891e-14 9.44227e-16 1.98785e-16 7.74018e-13 -1.84075e-13 -3.18055e-15 8.78415e-12 4.56434e-13 -2.06736e-13 2.07319e-11 5.92308e-13 -4.51639e-13 3.57916e-11 1.02414e-12 -7.89573e-13 2.07364e-11 5.91583e-13 -4.58e-13 7.73091 5.47488 0.417314 2.07327e-11 5.91881e-13 -4.54819e-13 2.90554 0.965183 0.102902 2.07379e-11 5.92676e-13 -4.57205e-13 10.2786 0.731801 0.0259123 2.07277e-11 5.95161e-13 -4.54819e-13 2.22167 -0.733487 -0.20892 2.0386e-15 5.88201e-17 -9.93923e-17 4.22051e-14 1.2424e-15 -1.78906e-15 7.61047e-13 2.77901e-13 -4.13472e-14 8.80274e-12 1.26477e-14 -1.68569e-13 2.07492e-11 6.29192e-13 -4.6118e-13 3.58433e-11 1.08457e-12 -7.92753e-13 2.07464e-11 6.26967e-13 -4.51639e-13 -7.73091 5.47488 -0.417314 2.07503e-11 6.28955e-13 -4.6118e-13 -2.90554 0.965183 -0.102902 2.07464e-11 6.29153e-13 -4.5959e-13 -10.2786 0.731801 -0.0259123 2.07537e-11 6.33328e-13 -4.70722e-13 -2.22167 -0.733487 0.20892 -2.03217e-16 0.0 -3.88251e-19 -0.640648 -1.92323 -0.00643448 -0.00925386 -2.07856 -0.0764209 -0.512036 3.99733 0.140294 2.03217e-16 0.0 3.88251e-19 -1.66985 -6.49781 0.154702 -0.00230982 6.20797 -0.0679762 0.534164 0.2855 -0.066582
0.272853 82.5251 -49.5546 -4.3803 -0.1171 7.6518 -1.08702 -2.14007 0.0648846 1.11421 1.24774 -0.107331 0.309175 0.324999 0.153477 -2.56203 7.8382 0.860675 -0.0 0.0 0.0 -0.0 0.0 0.0 -3.24057e-14 -9.00736e-14 4.4447e-15 19.7985 17.5309 0.832124 -22.839 -20.711 14.9128 0.00382237 1.37152 0.192555 4.00184e-10 2.54782e-09 -5.66177e-10 6.89201e-10 4.4002e-09 -9.79504e-10 4.00189e-10 2.54782e-09 -5.66181e-10 7.73091 5.47488 0.417314 4.00185e-10 2.54783e-09 -5.66178e-10 2.90554 0.965183 0.102902 4.0019e-10 2.54782e-09 -5.66179e-10 10.2786 0.731801 0.0259123 4.0018e-10 2.54782e-09 -5.66173e-10 2.22167 -0.733487 -0.20892 -3.25998e-14 -9.00762e-14 4.17836e-15 -21.5831 16.6377 -1.07184 21.0966 -18.9152 -15.1181 -0.0954811 -6.93371 0.949685 2.14697e-10 2.87749e-09 6.04233e-10 3.58967e-10 4.98183e-09 1.04721e-09 2.14695e-10 2.87748e-09 6.04243e-10 -7.73091 5.47488 -0.417314 2.14699e-10 2.87748e-09 6.04231e-10 -2.90554 0.965183 -0.102902 2.14695e-10 2.87749e-09 6.04235e-10 -10.2786 0.731801 -0.0259123 2.14702e-10 2.87749e-09 6.04225e-10 -2.22167 -0.733487 0.20892 -2.03217e-16 0.0 -3.88251e-19 -0.467721 -5.79383 0.955841 -0.00282728 4.52478 0.0465763 -0.590489 0.581887 -1.64825 2.03217e-16 0.0 3.88251e-19 0.763307 -9.67421 0.50654 -0.016059 12.2829 -0.174048 0.625329 -3.15428 1.58723
0.283778 82.5108 -49.6029 -4.4628 -0.1182 7.8656 -0.625665 -4.40084 0.17508 2.73898 2.56951 -0.145159 0.638233 0.66384 0.319703 -5.54457 16.1215 1.8347 -0.0 0.0 0.0 -0.0 0.0 0.0 -7.25458e-14 -1.90855e-13 8.72168e-15 40.0537 36.0523 2.01854 -33.2378 -37.5295 37.203 -0.00217406 2.8228 0.396682 8.34902e-10 5.47298e-09 -1.21783e-09 1.43778e-09 9.45214e-09 -2.10687e-09 8.34907e-10 5.47298e-09 -1.21783e-09 7.73091 5.47488 0.417314 8.34903e-10 5.47299e-09 -1.21782e-09 2.90554 0.965183 0.102902 8.34907e-10 5.47298e-09 -1.21782e-09 10.2786 0.731801 0.0259123 8.34898e-10 5.47299e-09 -1.21782e-09 2.22167 -0.733487 -0.20892 -7.27395e-14 -1.9086e-13 8.49183e-15 -43.6084 34.157 -2.53996 31.1846 -34.2453 -36.4059 0.0630229 -14.372 2.01759 4.31468e-10 6.12097e-09 1.28585e-09 7.20044e-10 1.05975e-08 2.22854e-09 4.31467e-10 6.12096e-09 1.28586e-09 -7.73091 5.47488 -0.417314 4.3147e-10 6.12096e-09 1.28585e-09 -2.90554 0.965183 -0.102902 4.31467e-10 6.12097e-09 1.28585e-09 -10.2786 0.731801 -0.0259123 4.31474e-10 6.12098e-09 1.28585e-09 -2.22167 -0.733487 0.20892 -2.03217e-16 0.0 -3.88251e-19 -0.145769 -9.88222 1.99337 -0.0272689 11.5073 0.179905 -0.905483 -3.02674 -3.54326 2.03217e-16 0.0 3.88251e-19 3.37525 -13.0314 0.890613 -0.00473076 18.7028 -0.293868 0.938389 -6.78078 3.35157
0.330037 82.5068 -49.6195 -4.474 -0.0455 7.9347 -0.198629 -6.41447 0.279052 4.18457 3.74116 -0.177273 0.9223 0.974968 0.460489 -8.44656 23.4924 2.78925 -0.0 0.0 0.0 -0.0 0.0 0.0 -1.01688e-13 -2.70341e-13 1.29365e-14 57.0384 52.5332 3.91514 -30.7314 -42.1268 63.9575 -0.016249 4.11437 0.578991 1.15909e-09 7.64228e-09 -1.69763e-09 1.99602e-09 1.31985e-08 -2.93693e-09 1.15909e-09 7.64228e-09 -1.69763e-09 7.73091 5.47488 0.417314 1.15909e-09 7.6423e-09 -1.69762e-09 2.90554 0.965183 0.102902 1.15909e-09 7.64228e-09 -1.69762e-09 10.2786 0.731801 0.0259123 1.15908e-09 7.64228e-09 -1.69761e-09 2.22167 -0.733487 -0.20892 -1.01877e-13 -2.70346e-13 1.27339e-14 -62.0153 49.823 -4.77867 30.1819 -38.7514 -60.6999 0.443585 -20.7774 3.02512 6.02593e-10 8.6312e-09 1.81362e-09 1.00521e-09 1.49433e-08 3.14321e-09 6.02593e-10 8.63119e-09 1.81363e-09 -7.73091 5.47488 -0.417314 6.02596e-10 8.63118e-09 1.81362e-09 -2.90554 0.965183 -0.102902 6.02593e-10 8.6312e-09 1.81362e-09 -10.2786 0.731801 -0.0259123 6.026e-10 8.6312e-09 1.81362e-09 -2.22167 -0.733487 0.20892 -2.03217e-16 0.0 -3.88251e-19 0.277863 -13.5202 2.94749 -0.0778708 17.7312 0.306599 -1.38838 -6.22225 -5.25545 2.03217e-16 0.0 3.88251e-19 5.75126 -16.0245 1.23873 0.0304458 24.4324 -0.411924 1.41025 -10.0006 4.96322
0.365976 82.5065 -49.6198 -4.5625 0.0287 7.9261 0.126614 -7.81033 0.365983 5.17875 4.53752 -0.194822 1.09768 1.21685 0.537621 -10.5789 28.6044 3.49386 -0.0 0.0 0.0 -0.0 0.0 0.0 -1.03334e-13 -2.96584e-13 1.69961e-14 67.3766 63.9547 6.62702 -28.3264 -38.0679 80.5245 -0.0308448 5.00687 0.705484 1.20694e-09 7.92192e-09 -1.74781e-09 2.07838e-09 1.36811e-08 -3.02371e-09 1.20695e-09 7.92192e-09 -1.74781e-09 7.73091 5.47488 0.417314 1.20695e-09 7.92194e-09 -1.7478e-09 2.90554 0.965183 0.102902 1.20695e-09 7.92192e-09 -1.7478e-09 10.2786 0.731801 0.0259123 1.20694e-09 7.92192e-09 -1.74779e-09 2.22167 -0.733487 -0.20892 -1.03508e-13 -2.96591e-13 1.67973e-14 -73.131 60.9175 -7.88152 28.4326 -35.4443 -76.0819 0.806479 -24.6258 3.69362 6.59603e-10 9.30828e-09 1.95677e-09 1.10061e-09 1.61145e-08 3.3912e-09 6.59603e-10 9.30827e-09 1.95678e-09 -7.73091 5.47488 -0.417314 6.59605e-10 9.30826e-09 1.95676e-09 -2.90554 0.965183 -0.102902 6.59602e-10 9.30828e-09 1.95677e-09 -10.2786 0.731801 -0.0259123 6.5961e-10 9.30829e-09 1.95676e-09 -2.22167 -0.733487 0.20892 -2.03217e-16 0.0 -3.88251e-19 0.669635 -16.046 3.6322 -0.130782 22.0591 0.401922 -1.83719 -8.41376 -6.47031 2.03217e-16 0.0 3.88251e-19 7.44854 -18.1099 1.47294 0.0710983 28.4364 -0.50347 1.85304 -12.2354 6.12747
0.349323 82.5027 -49.6263 -4.8202 0.0504 7.9477 0.31281 -8.33686 0.431185 5.52987 4.79768 -0.190299 1.11955 1.37506 0.519011 -11.3188 30.569 3.67227 -0.0 0.0 0.0 -0.0 0.0 0.0 -5.32715e-14 -2.33474e-13 2.11154e-14 70.6603 68.3688 8.45493 -28.2507 -35.2068 85.4452 -0.0374115 5.34037 0.752886 7.63704e-10 4.82781e-09 -1.02677e-09 1.31501e-09 8.33643e-09 -1.77622e-09 7.63712e-10 4.82781e-09 -1.02677e-09 7.73091 5.47488 0.417314 7.63705e-10 4.82784e-09 -1.02677e-09 2.90554 0.965183 0.102902 7.63709e-10 4.82781e-09 -1.02676e-09 10.2786 0.731801 0.0259123 7.63701e-10 4.82781e-09 -1.02675e-09 2.22167 -0.733487 -0.20892 -5.3408e-14 -2.3348e-13 2.08786e-14 -76.1011 65.7909 -10.3869 28.34 -32.885 -80.7321 0.854106 -24.7388 3.72303 5.31489e-10 6.87122e-09 1.44368e-09 8.88566e-10 1.18922e-08 2.50179e-09 5.3149e-10 6.87121e-09 1.4437e-09 -7.73091 5.47488 -0.417314 5.31491e-10 6.8712e-09 1.44368e-09 -2.90554 0.965183 -0.102902 5.31488e-10 6.87122e-09 1.44368e-09 -10.2786 0.731801 -0.0259123 5.31497e-10 6.87123e-09 1.44368e-09 -2.22167 -0.733487 0.20892 -2.03217e-16 0.0 -3.88251e-19 0.893059 -17.0226 3.89483 -0.155753 23.736 0.440945 -2.03367 -9.21922 -6.95303 2.03217e-16 0.0 3.88251e-19 8.16456 -18.9205 1.52918 0.0914321 30.0267 -0.542702 2.06001 -13.116 6.61647
